PathFileType	4	(X/Y/Z)	Patient4_TMGait_0pt3_01_right_09.trc.trc
DataRate	CameraRate	NumFrames	NumMarkers	Units	OrigDataRate	OrigDataStartFrame	OrigNumFrames
52.044609665427	52.044609665427	4	33	mm	52.044609665427	89	       141
Frame#	Time	Sacral			L.Shoulder			Chest			R.Shoulder			Neck			R.ASIS			L.ASIS			R.Thigh.Superior			R.Thigh.Lateral			R.Thigh.Inferior			R.Patella			L.Thigh.Superior			L.Thigh.Lateral			L.Thigh.Inferior			L.Patella			L.Shank.Superior			L.Shank.Lateral			L.Shank.Inferior			R.Shank.Superior			R.Shank.Lateral			R.Shank.Inferior			R.Heel			R.Midfoot.Superior			R.Midfoot.Lateral			R.Toe			L.Heel			L.Midfoot.Lateral			L.Midfoot.Superior			L.Toe			L.Elbow			L.Wrist			R.Elbow			R.Wrist			
		X1	Y1	Z1	X2	Y2	Z2	X3	Y3	Z3	X4	Y4	Z4	X5	Y5	Z5	X6	Y6	Z6	X7	Y7	Z7	X8	Y8	Z8	X9	Y9	Z9	X10	Y10	Z10	X11	Y11	Z11	X12	Y12	Z12	X13	Y13	Z13	X14	Y14	Z14	X15	Y15	Z15	X16	Y16	Z16	X17	Y17	Z17	X18	Y18	Z18	X19	Y19	Z19	X20	Y20	Z20	X21	Y21	Z21	X22	Y22	Z22	X23	Y23	Z23	X24	Y24	Z24	X25	Y25	Z25	X26	Y26	Z26	X27	Y27	Z27	X28	Y28	Z28	X29	Y29	Z29	X30	Y30	Z30	X31	Y31	Z31	X32	Y32	Z32	X33	Y33	Z33	

89	17.210857142857	703.971876712083	1002.253126555214	502.911442543378	821.098575530144	1428.770372650496	288.388696854916	969.362531121717	1363.298217205484	410.297187310615	938.960919788143	1438.736181092315	597.741172892248	849.726904334248	1490.381061709765	450.955843712338	951.049227576490	934.294778859816	566.712903847798	880.712097159329	957.431807330624	302.599445009598	946.531148925113	721.955463053205	550.094441334569	854.513171088869	626.857430289673	628.665195314063	908.716315799503	558.253431241173	545.608913565299	888.847485400317	463.163729862205	562.043457702258	956.447849019812	758.863285995272	330.275363575705	881.546499472419	630.307288822858	275.990401213249	983.866821560487	563.013265096139	326.207264364731	994.515169805949	488.858829891946	330.599109411573	960.203108124191	413.949685750139	326.723632247137	859.877290722123	306.954353415336	281.899461286871	907.244505350406	190.437086226989	343.633105064605	829.235080945557	389.782967832743	578.649726899213	731.424035367526	320.654961348484	653.425817861756	735.277826889005	212.934953055356	598.457270967456	553.311249566326	85.671636031924	589.627305077362	733.469968501685	104.183635754116	615.848310277388	637.314814801102	61.412728047045	659.685587483535	840.201803750454	36.511684315976	640.619969812335	773.533016666714	39.684232898609	389.738744786458	840.281898204034	36.387619859572	303.459095604291	927.007288519597	96.178940317333	324.095635966889	1051.091406868126	40.904731746123	282.379964594974	710.429545891435	1098.549932566768	180.884447413981	741.710191612329	855.970402812544	88.824812517896	1133.726821166767	1152.274162425092	566.399232286976	1171.833364950372	1231.950747763142	330.392841814210	
90	17.230071428571	702.285292549485	1003.301330979657	496.570055838242	821.985674372353	1430.049302328544	283.334007858466	968.973285680962	1363.907867303996	406.485500910715	937.240237157745	1439.313424478298	593.752974798017	849.400894745038	1491.345993330548	446.306770356426	948.904534940473	935.080631352932	562.141265471423	880.383783858962	958.147034259923	297.530085795412	945.431938225909	722.883744139497	546.229113886566	853.741120324076	627.794835907132	624.966044276873	908.994005636477	558.910824698455	542.496523430964	889.548281883355	463.098024936045	559.954649204886	954.348565006235	758.327512309743	325.239783663266	877.682805027422	630.254132380039	272.233156890671	979.359097139750	562.261604088493	322.536509113212	989.345573986889	488.369966369843	327.579222256842	954.911116138742	413.607691336382	324.170878563082	854.388748191017	306.494006761280	280.216279809856	901.714297492668	190.311665501163	342.689955159452	828.786289239042	390.576484124528	576.727441405435	729.669681753233	323.286831419117	651.435942248674	732.930912458623	214.886091924109	597.569821713054	549.291896963677	90.367516111193	589.027210200184	729.898874789241	105.078442618061	615.678052976569	632.657849043248	64.396894706079	659.296174863452	834.713962658485	36.310925701210	640.566888559313	767.760655949769	39.729359268493	389.700093695264	834.500817607987	36.329305803970	303.420684285882	921.271968415891	96.060782402922	323.901638526786	1045.363360461689	40.609373801080	282.279099632838	713.321231892525	1100.604567908166	170.730709697078	752.644760967709	861.042633163654	73.906225599825	1131.451847407799	1151.640923747916	565.745387773151	1176.129604286514	1228.891065865583	329.728488897557	
91	17.249285714286	700.354382965626	1004.308949336252	490.284664252032	822.812536645089	1431.280434970085	278.414217572258	968.397693959479	1364.414339021545	402.890853003108	935.276094135947	1439.830051804310	589.961142188135	848.938915689693	1492.255176427221	441.781316144747	946.511255998205	935.842154238887	557.786750493959	879.968514482665	958.793618650744	292.640408657457	944.531504907763	723.846048851105	542.493067802830	853.382607270073	628.587489431460	621.322494092468	909.859495147001	559.554110919018	539.392770184943	890.993618629185	462.914473637625	557.928883288700	952.116272952555	757.751994369484	320.347576578301	873.683035300142	630.226010971839	268.540026340158	974.681255660394	561.520583575729	318.945508006898	983.999370352699	487.916827410057	324.600633782011	949.468502303164	413.312465924706	321.630829569248	848.764395414093	306.071133793970	278.517853665828	896.121024263590	190.220776576893	341.723090012534	828.966633509665	391.293946046460	574.794575798699	728.429987352265	326.043518228620	649.332614253553	730.993686925286	216.964079801423	596.607734903124	545.605005419300	95.578665162526	588.166986185055	726.539879152775	106.126775092604	615.451578077466	628.134754765589	67.793981878589	658.735570609836	829.191155023534	36.042123060105	640.549749169056	761.976244600585	39.765126604385	389.645655946830	828.710256643928	36.269017800250	303.363515795567	915.518890319627	95.959406894337	323.685787882716	1039.623408454400	40.373649270706	282.177381399445	716.568227186713	1102.682372634740	160.411752059294	764.713919155392	866.666526715282	58.890626343310	1128.501236623132	1150.470549841270	565.882420056728	1180.704241134192	1224.264341192556	329.913430062347	
92	17.268500000000	698.169455271514	1005.261533523364	484.083327417740	823.581957353526	1432.441612728944	273.646792498972	967.625740535652	1364.808497088691	399.539045541030	933.049414963320	1440.276524703688	586.385847076012	848.327874484861	1493.095808072461	437.396446638685	943.854737287562	936.568710436857	553.672774741387	879.445423435759	959.370327178379	287.957735488768	943.912193472186	724.867958597836	538.864961026169	853.598280380984	629.220774942197	617.713713286571	911.476115696925	560.202439251147	536.256246141434	893.360051392493	462.629913842064	555.911311732982	949.746411654928	757.139335361388	315.662049582562	869.584115143096	630.212376938341	264.960651342100	969.859641925432	560.792419244611	315.533284060733	978.511026464175	487.493631152578	321.759750902087	943.902462914308	413.060673294872	319.180155265436	843.042240924059	305.687560727557	276.842626706695	890.478411991811	190.161505866119	340.774460309099	829.942489264683	391.940546968786	572.798457303380	727.853785416831	328.971419127418	647.047006099863	729.559294724618	219.225916474253	595.505129037362	542.348660419089	101.477189445914	586.937130926352	723.428504360713	107.405297909817	615.116465258425	623.789110334749	71.760351136323	657.922133888336	823.615506189274	35.687174639672	640.579892031679	756.181891094194	39.789596072839	389.578522751596	822.911474986344	36.209492609339	303.291319023815	909.749967721268	95.876793332270	323.459618003939	1033.870757453716	40.195799041025	282.077957366607	720.251872590245	1104.761575705779	149.984566062197	777.922007026017	872.824106057593	43.993122195115	1124.732607576752	1148.699165602337	566.838872915261	1185.422268740720	1217.822836527186	331.071340531079	
